#!OML:ASF I:\Actors\actors\Patient Classification 2\Patient 1\Session 1\actor1.ASF
:FULLY-SPECIFIED
:DEGREES
575
root -0.71686 18.7112 5.67857 3.04484 -3.50629 -1.64101
lowerback 1.57805 1.03091 -0.307801
upperback -1.29346 1.38368 0.791559
thorax -2.23717 0.702321 0.935426
lowerneck 1.19455 -3.2392 -0.602528
upperneck 18.7749 -4.81989 2.55129
head 5.53972 -2.23673 0.687541
rclavicle 2.22562e-014 -9.21553e-015
rhumerus -12.3995 40.3254 -66.3101
rradius 139.65
rwrist -6.93341
rhand -20.1413 -29.3991
rfingers 7.12502
rthumb 6.20337 -59.2883
lclavicle 2.22562e-014 -9.21553e-015
lhumerus -8.97928 -41.0827 68.0824
lradius 137.383
lwrist 24.1063
lhand -19.1012 -42.0151
lfingers 7.12502
lthumb 7.20745 -12.1578
rfemur 0 0 0
rtibia 0
rfoot 0 0
rtoes 0
lfemur -4.75964 -8.03536 -12.9516
ltibia 21.0274
lfoot -25.7263 18.136
ltoes -53.4421
576
root -0.716298 18.7113 5.67859 3.05865 -3.5012 -1.64448
lowerback 1.56652 1.01735 -0.300845
upperback -1.21342 1.36556 0.806347
thorax -2.14832 0.692816 0.948417
lowerneck 1.58377 -3.30083 -0.70112
upperneck 18.1459 -4.90403 2.72399
head 5.28571 -2.28526 0.765892
rclavicle 9.83581e-015 -2.18182e-014
rhumerus -11.9483 40.2789 -65.9056
rradius 140.015
rwrist -7.03116
rhand -20.429 -29.4258
rfingers 7.12502
rthumb 5.92564 -59.323
lclavicle 9.83581e-015 -2.18182e-014
lhumerus -8.38109 -40.9192 67.6968
lradius 137.646
lwrist 24.1428
lhand -19.2195 -41.9562
lfingers 7.12502
lthumb 7.09326 -12.095
rfemur 0 0 0
rtibia 0
rfoot 0 0
rtoes 0
lfemur -4.7788 -8.02832 -12.9488
ltibia 21.0352
lfoot -25.696 18.1523
ltoes -53.4789
577
root -0.715956 18.712 5.6786 3.05876 -3.50828 -1.6463
lowerback 1.55471 1.0158 -0.310897
upperback -1.17746 1.36332 0.822279
thorax -2.10535 0.691753 0.971068
lowerneck 2.20348 -3.35169 -0.714338
upperneck 17.4143 -4.95403 2.78787
head 4.95797 -2.32214 0.803302
rclavicle 1.54009e-014 -1.36354e-014
rhumerus -11.7278 40.2757 -65.6473
rradius 140.387
rwrist -7.02058
rhand -20.6411 -29.3394
rfingers 7.12502
rthumb 5.72089 -59.2422
lclavicle 1.54009e-014 -1.36354e-014
lhumerus -8.08162 -40.8669 67.5169
lradius 137.949
lwrist 24.2042
lhand -19.2404 -41.9861
lfingers 7.12502
lthumb 7.07306 -12.1243
rfemur 0 0 0
rtibia 0
rfoot 0 0
rtoes 0
lfemur -4.77258 -8.04713 -12.9535
ltibia 21.0292
lfoot -25.6863 18.1986
ltoes -53.5384
578
root -0.715269 18.713 5.67914 3.03999 -3.51578 -1.62788
lowerback 1.57391 0.971261 -0.348093
upperback -1.16674 1.3041 0.882494
thorax -2.10623 0.663164 1.05545
lowerneck 3.00958 -3.34408 -0.803497
upperneck 16.1997 -4.88444 2.67702
head 4.97641 -2.32915 0.892629
rclavicle -2.47976e-015 -9.56651e-015
rhumerus -11.5595 40.4516 -65.4132
rradius 140.712
rwrist -6.77412
rhand -20.8018 -29.1776
rfingers 7.12502
rthumb 5.56574 -59.0845
lclavicle -2.47976e-015 -9.56651e-015
lhumerus -8.06178 -40.7384 67.5525
lradius 138.257
lwrist 24.1544
lhand -19.2195 -42.1968
lfingers 7.12502
lthumb 7.09331 -12.3357
rfemur 0 0 0
rtibia 0
rfoot 0 0
rtoes 0
lfemur -4.74412 -8.05754 -12.9822
ltibia 21.0142
lfoot -25.7052 18.2185
ltoes -53.559
579
root -0.71417 18.7131 5.67915 3.01602 -3.51829 -1.61635
lowerback 1.62426 0.884447 -0.378833
upperback -1.1217 1.1895 0.998423
thorax -2.08899 0.607057 1.19513
lowerneck 3.38835 -3.26012 -1.08527
upperneck 15.7309 -4.75182 2.67211
head 4.7307 -2.2885 0.952644
rclavicle 2.59818e-015 -3.72721e-015
rhumerus -11.2037 40.6846 -65.0179
rradius 140.979
rwrist -6.66194
rhand -20.9305 -29.0025
rfingers 7.12502
rthumb 5.44148 -58.9127
lclavicle 2.59818e-015 -3.72721e-015
lhumerus -8.09026 -40.5047 67.6944
lradius 138.561
lwrist 23.9796
lhand -19.2572 -42.1606
lfingers 7.12502
lthumb 7.05686 -12.2982
rfemur 0 0 0
rtibia 0
rfoot 0 0
rtoes 0
lfemur -4.7153 -8.03052 -12.9984
ltibia 21.0035
lfoot -25.6992 18.1865
ltoes -53.5673
580
root -0.713013 18.7123 5.67776 3.00306 -3.52153 -1.62697
lowerback 1.67114 0.917497 -0.292541
upperback -1.06085 1.23475 0.963274
thorax -2.0513 0.627794 1.10891
lowerneck 3.62657 -3.31055 -0.884991
upperneck 15.3652 -4.79377 2.55115
head 4.53819 -2.30813 0.880379
rclavicle 1.91486e-015 1.25234e-014
rhumerus -11.2099 40.5613 -64.9535
rradius 141.197
rwrist -6.75293
rhand -20.9825 -29.1579
rfingers 7.12502
rthumb 5.39127 -59.0693
lclavicle 1.91486e-015 1.25234e-014
lhumerus -7.76928 -40.6472 67.5334
lradius 138.822
lwrist 23.8591
lhand -19.3113 -41.7112
lfingers 7.12502
lthumb 7.00465 -11.8471
rfemur 0 0 0
rtibia 0
rfoot 0 0
rtoes 0
lfemur -4.69833 -8.02224 -12.99
ltibia 20.9978
lfoot -25.6849 18.1534
ltoes -53.5526
581
root -0.712192 18.712 5.67691 2.98882 -3.52605 -1.63584
lowerback 1.72864 1.05624 -0.130895
upperback -0.936691 1.41951 0.764685
thorax -1.95109 0.715819 0.80858
lowerneck 3.55863 -3.49404 -0.271367
upperneck 15.0724 -5.0239 2.4705
head 4.42525 -2.39288 0.739821
rclavicle -1.79636e-014 -3.73342e-015
rhumerus -11.3865 40.0599 -65.12
rradius 141.295
rwrist -6.95655
rhand -20.8829 -29.4563
rfingers 7.12502
rthumb 5.48742 -59.3653
lclavicle -1.79636e-014 -3.73342e-015
lhumerus -6.97652 -41.0824 66.9252
lradius 138.982
lwrist 23.9291
lhand -19.3419 -41.2428
lfingers 7.12502
lthumb 6.97514 -11.3777
rfemur 0 0 0
rtibia 0
rfoot 0 0
rtoes 0
lfemur -4.67889 -8.04589 -12.988
ltibia 20.9916
lfoot -25.6884 18.1663
ltoes -53.5556
582
root -0.711886 18.7123 5.67644 2.98068 -3.52824 -1.64395
lowerback 1.80426 1.21556 0.0206971
upperback -0.759003 1.63052 0.512723
thorax -1.80287 0.817188 0.459055
lowerneck 3.22357 -3.69748 0.519655
upperneck 14.8578 -5.29569 2.44457
head 4.38878 -2.48429 0.581301
rclavicle 2.8976e-014 -6.55989e-015
rhumerus -11.4499 39.378 -65.2285
rradius 141.267
rwrist -7.24751
rhand -20.7711 -29.5218
rfingers 7.12502
rthumb 5.59532 -59.428
lclavicle 2.8976e-014 -6.55989e-015
lhumerus -5.87969 -41.5625 66.0235
lradius 139.04
lwrist 24.255
lhand -19.2855 -41.0133
lfingers 7.12502
lthumb 7.02959 -11.15
rfemur 0 0 0
rtibia 0
rfoot 0 0
rtoes 0
lfemur -4.66692 -8.07252 -12.984
ltibia 20.9869
lfoot -25.7293 18.1757
ltoes -53.4884
583
root -0.712377 18.7111 5.67542 2.98198 -3.53856 -1.63889
lowerback 1.84659 1.1884 0.0118984
upperback -0.708251 1.59419 0.528146
thorax -1.77495 0.79915 0.480714
lowerneck 3.43586 -3.65777 0.462184
upperneck 14.6158 -5.24754 2.59467
head 4.26594 -2.4629 0.648649
rclavicle -1.74061e-014 1.28713e-014
rhumerus -11.4116 39.4528 -65.027
rradius 141.224
rwrist -7.52219
rhand -20.7365 -29.7002
rfingers 7.12502
rthumb 5.62878 -59.6055
lclavicle -1.74061e-014 1.28713e-014
lhumerus -5.83052 -41.6603 65.9451
lradius 139.161
lwrist 24.3724
lhand -19.251 -41.0048
lfingers 7.12502
lthumb 7.06283 -11.1426
rfemur 0 0 0
rtibia 0
rfoot 0 0
rtoes 0
lfemur -4.66691 -8.04532 -12.9868
ltibia 20.986
lfoot -25.7258 18.135
ltoes -53.4304
